# AST/ASF file generated using VICON BodyLanguage
# -----------------------------------------------
:version 1.10
:name VICON
:units
  mass 1.0
  length 0.45
  angle deg
:documentation
   .ast/.asf automatically generated from VICON data using
   VICON BodyBuilder and BodyLanguage model FoxedUp or BRILLIANT.MOD
:root
   order TX TY TZ RX RY RZ
   axis XYZ
   position 0 0 0  
   orientation 0 0 0 
:bonedata
  begin
     id 1 
     name lhipjoint
     direction 0.570549 -0.739093 0.358072 
     length 2.41801 
     axis 0 0 0  XYZ
  end
  begin
     id 2 
     name lfemur
     direction 0.34202 -0.939693 0  
     length 7.44434  
     axis 0 0 20  XYZ
    dof rx ry rz
    limits (-160.0 20.0)
           (-70.0 70.0)
           (-60.0 70.0)
  end
  begin
     id 3 
     name ltibia
     direction 0.34202 -0.939693 0   
     length 7.60047   
     axis 0 0 20   XYZ
    dof rx
    limits (-10.0 170.0)
  end
  begin
     id 4 
     name lfoot
     direction 0.0909041 -0.249757 0.964032   
     length 2.03437   
     axis -90 7.62852e-016 20   XYZ
    dof rx rz
    limits (-45.0 90.0)
           (-70.0 20.0)
  end
  begin
     id 5 
     name ltoes
     direction 1.53547e-011 -4.2174e-011 1   
     length 1.02054   
     axis -90 7.62852e-016 20   XYZ
    dof rx
    limits (-90.0 20.0)
  end
  begin
     id 6 
     name rhipjoint
     direction -0.558096 -0.746754 0.361784   
     length 2.3932  
     axis 0 0 0  XYZ 
  end
  begin
     id 7 
     name rfemur
     direction -0.34202 -0.939693 0   
     length 7.3886   
     axis 0 0 -20   XYZ
    dof rx ry rz
    limits (-160.0 20.0)
           (-70.0 70.0)
           (-70.0 60.0)
  end
  begin
     id 8 
     name rtibia
     direction -0.34202 -0.939693 0   
     length 7.4839   
     axis 0 0 -20   XYZ
    dof rx
    limits (-10.0 170.0)
 end
 begin
     id 9 
     name rfoot
     direction -0.114619 -0.314914 0.942174   
     length 2.25127  
     axis -90 -7.62852e-016 -20   XYZ
    dof rx rz
    limits (-45.0 90.0)
           (-20.0 70.0)
  end
  begin
     id 10 
     name rtoes
     direction -1.53518e-011 -4.21881e-011 1   
     length 1.11821   
     axis -90 -7.62852e-016 -20   XYZ
    dof rx
    limits (-90.0 20.0)
  end
  begin
     id 11 
     name lowerback
     direction -0.00902269 0.996426 -0.0839821   
     length 2.25052   
     axis 0 0 0   XYZ
    dof rx ry rz
    limits (-20.0 45.0)
           (-30.0 30.0)
           (-30.0 30.0)
  end
  begin
     id 12 
     name upperback
     direction 0.0370973 0.999169 -0.0168941   
     length 2.24876   
     axis 0 0 0   XYZ
    dof rx ry rz
    limits (-20.0 45.0)
           (-30.0 30.0)
           (-30.0 30.0)
  end
  begin
     id 13 
     name thorax
     direction 0.0402726 0.998931 0.0227027   
     length 2.26408   
     axis 0 0 0   XYZ
    dof rx ry rz
    limits (-20.0 45.0)
           (-30.0 30.0)
           (-30.0 30.0)
  end
  begin
     id 14 
     name lowerneck
     direction -0.0733697 0.98508 0.155675   
     length 1.58204   
     axis 0 0 0   XYZ
    dof rx ry rz
    limits (-20.0 45.0)
           (-30.0 30.0)
           (-30.0 30.0)
  end
  begin
     id 15 
     name upperneck
     direction 0.0426554 0.993501 -0.105526   
     length 1.61222   
     axis 0 0 0   XYZ
    dof rx ry rz
    limits (-20.0 45.0)
           (-30.0 30.0)
           (-30.0 30.0)
  end
  begin
     id 16
     name head
     direction 0.020792 0.998384 -0.0528868  
     length 1.61527  
     axis 0 0 0   XYZ
    dof rx ry rz
    limits (-20.0 45.0)
           (-30.0 30.0)
           (-30.0 30.0)
  end
  begin
     id 17 
     name lclavicle
     direction 0.967109 0.155462 -0.201325  
     length 3.59357  
     axis 0 0 0   XYZ
    dof ry rz
    limits (-20.0 10.0)
           (0.0 20.0)
  end
  begin
     id 18 
     name lhumerus
     direction 1 -4.48968e-011 2.38195e-027   
     length 5.38154   
     axis 180 -30 -90   XYZ
    dof rx ry rz
    limits (-60.0 90.0)
           (-90.0 90.0)
           (-90.0 90.0)
  end
  begin
     id 19
     name lradius
     direction 1 -4.48961e-011 4.85371e-027   
     length 3.33312   
     axis 180 -30 -90   XYZ
    dof rx
    limits (-10.0 170.0)
  end
  begin
     id 20
     name lwrist
     direction 1 -4.48961e-011 4.76515e-027   
     length 1.66656   
     axis -3.27502e-015 90 90   XYZ
    dof ry
    limits (-180.0 0.0)
 end
  begin
     id 21 
     name lhand
     direction 1 -4.48951e-011 9.53074e-027   
     length 0.710789   
     axis -6.08098e-015 90 90   XYZ
    dof rx rz
    limits (-90.0 90.0)
           (-45.0 45.0)
  end
  begin
     id 22 
     name lfingers
     direction 1 -4.48953e-011 1.90613e-026   
     length 0.573057   
     axis -1.21619e-014 90 90   XYZ
    dof rx
    limits (0.0 90.0)
  end
  begin
     id 23
     name lthumb
     direction 0.707107 -6.34973e-011 0.707107   
     length 0.822798   
     axis -90 45 -9.86923e-015   XYZ
    dof rx rz
    limits (-45.0 45.0)
           (-45.0 45.0)
  end
  begin
     id 24 
     name rclavicle
     direction -0.9585 0.265289 -0.104398   
     length 3.42039  
     axis 0 0 0   XYZ 
    dof ry rz
    limits (-10.0 20.0)
           (-20.0 0.0)
  end
  begin
     id 25 
     name rhumerus
     direction -1 -4.48977e-011 2.21478e-027  
     length 5.16954   
     axis 180 30 90   XYZ
    dof rx ry rz
    limits (-90.0 60.0)
           (-90.0 90.0)
           (-90.0 90.0)
  end
  begin
     id 26 
     name rradius
     direction -1 -4.48967e-011 5.63677e-027   
     length 3.38287   
     axis 180 30 90   XYZ
    dof rx
    limits (-10.0 170.0)
  end
  begin
     id 27 
     name rwrist
     direction -1 -4.48967e-011 4.76501e-027   
     length 1.69144   
     axis -3.27502e-015 -90 -90   XYZ
    dof ry
    limits (-180.0 0.0)
  end
  begin
     id 28
     name rhand
     direction -1 -4.48902e-011 9.53292e-027   
     length 0.817967   
     axis -6.08098e-015 -90 -90   XYZ
    dof rx rz
    limits (-90.0 90.0)
           (-45.0 45.0)
  end
  begin
     id 29
     name rfingers
     direction -1 -4.49012e-011 1.90561e-026   
     length 0.659466   
     axis -1.21619e-014 -90 -90   XYZ
    dof rx
    limits (0.0 90.0)
  end
  begin
     id 30
     name rthumb
     direction -0.707107 -6.34944e-011 0.707107   
     length 0.946865   
     axis -90 -45 9.86923e-015   XYZ
    dof rx rz
    limits (-45.0 45.0)
           (-45.0 45.0)
  end
:hierarchy
  begin
    root lhipjoint rhipjoint lowerback
    lhipjoint lfemur
    lfemur ltibia
    ltibia lfoot
    lfoot ltoes
    rhipjoint rfemur
    rfemur rtibia
    rtibia rfoot
    rfoot rtoes
    lowerback upperback
    upperback thorax
    thorax lowerneck lclavicle rclavicle
    lowerneck upperneck
    upperneck head
    lclavicle lhumerus
    lhumerus lradius
    lradius lwrist
    lwrist lhand lthumb
    lhand lfingers
    rclavicle rhumerus
    rhumerus rradius
    rradius rwrist
    rwrist rhand rthumb
    rhand rfingers
  end

#!OML:ASF F:\twosubjects\two\wednesday\Session 1\Justin1.ASF
:FULLY-SPECIFIED
:DEGREES
1365
root 2.638 17.7741 18.7406 -183.181 139.141 -544.725
lowerback 7.23673 -0.524083 1.17337
upperback 3.05982 -0.518248 3.33308
thorax -0.878108 -0.247593 2.8178
lowerneck -17.6353 -5.73933 -15.4691
upperneck 20.3817 -5.51603 8.17931
head 10.0952 -2.83075 4.68297
rclavicle 6.98728e-014 -9.54166e-015
rhumerus 38.6932 12.7906 -56.9415
rradius 36.3883
rwrist -0.367895
rhand -20.4505 33.0636
rfingers 7.12502
rthumb 5.90493 3.16586
lclavicle 6.98728e-014 -9.54166e-015
lhumerus 30.7537 -11.8633 56.3346
lradius 45.3771
lwrist -18.113
lhand -8.77446 33.6096
lfingers 7.12502
lthumb 17.1635 62.8716
rfemur -9.96102 -2.55018 13.6336
rtibia 23.6347
rfoot -11.9776 -12.8986
rtoes 9.18004
lfemur -24.5932 3.92421 -6.80595
ltibia 38.527
lfoot -16.6739 0.95242
ltoes -15.3616
1366
root 2.67267 17.7799 18.7624 -183.418 138.474 -545.264
lowerback 7.32753 -0.546544 1.38282
upperback 2.90703 -0.521155 3.49973
thorax -1.08607 -0.246987 2.87514
lowerneck -17.731 -5.76618 -15.7982
upperneck 20.3674 -5.46299 8.26645
head 10.1153 -2.82008 4.7757
rclavicle 8.5378e-014 -4.85035e-014
rhumerus 38.7395 12.5726 -57.12
rradius 36.1456
rwrist 0.140441
rhand -20.1748 32.898
rfingers 7.12502
rthumb 6.17103 3.00791
lclavicle 8.5378e-014 -4.85035e-014
lhumerus 30.608 -12.0338 56.014
lradius 45.5692
lwrist -17.8134
lhand -8.53401 33.8331
lfingers 7.12502
lthumb 17.395 63.0747
rfemur -9.63204 -2.61953 14.0061
rtibia 23.3158
rfoot -12.1418 -13.3678
rtoes 10.2381
lfemur -24.7401 3.28414 -6.19368
ltibia 37.0555
lfoot -15.6918 2.28746
ltoes -19.9467
1367
root 2.71216 17.7852 18.785 -183.774 137.801 -545.981
lowerback 7.28145 -0.54055 1.85272
upperback 2.81951 -0.474383 3.64075
thorax -1.15522 -0.220411 2.753
lowerneck -18.2625 -5.9586 -17.2869
upperneck 20.6362 -5.44682 9.21774
head 10.3885 -2.81997 5.38014
rclavicle -1.01181e-013 3.81667e-014
rhumerus 38.6517 12.2112 -57.3443
rradius 35.8392
rwrist 0.281206
rhand -20.3957 33.4854
rfingers 7.12502
rthumb 5.95781 3.58916
lclavicle -1.01181e-013 3.81667e-014
lhumerus 30.8204 -12.115 56.0324
lradius 45.5075
lwrist -17.8278
lhand -8.28377 34.0265
lfingers 7.12502
lthumb 17.6358 63.2466
rfemur -9.20606 -2.67632 14.5099
rtibia 22.847
rfoot -12.1613 -13.9823
rtoes 10.1982
lfemur -24.9059 2.97184 -5.43494
ltibia 35.6851
lfoot -14.5175 2.98426
ltoes -21.3011
1368
root 2.76794 17.7981 18.8081 -183.678 137.294 -545.943
lowerback 7.13867 -0.493771 1.94181
upperback 2.7748 -0.413778 3.52752
thorax -1.12592 -0.189695 2.57897
lowerneck -17.2489 -5.74083 -14.8012
upperneck 19.7729 -5.59522 7.54581
head 9.77635 -2.88004 4.3215
rclavicle 2.3059e-014 1.78906e-014
rhumerus 38.6404 12.0852 -57.4635
rradius 35.6194
rwrist -0.121289
rhand -20.6682 33.6577
rfingers 7.12502
rthumb 5.69468 3.75425
lclavicle 2.3059e-014 1.78906e-014
lhumerus 30.847 -11.8608 56.3495
lradius 45.4471
lwrist -18.4106
lhand -8.29581 33.5045
lfingers 7.12502
lthumb 17.6242 62.7257
rfemur -8.59951 -2.91706 14.3234
rtibia 22.1442
rfoot -11.916 -14.2597
rtoes 9.54689
lfemur -24.6821 2.19335 -5.11175
ltibia 34.4849
lfoot -13.628 3.48097
ltoes -15.8662
1369
root 2.82421 17.8133 18.8321 -183.548 136.958 -545.931
lowerback 6.95579 -0.456773 1.96335
upperback 2.72949 -0.373842 3.38457
thorax -1.07373 -0.169881 2.41375
lowerneck -17.3603 -5.73979 -15.1281
upperneck 19.8645 -5.55905 7.84818
head 9.84453 -2.85492 4.49084
rclavicle -2.51463e-014 -2.38542e-015
rhumerus 38.8052 12.146 -57.6291
rradius 35.4482
rwrist -0.605655
rhand -20.749 33.2258
rfingers 7.12502
rthumb 5.61673 3.32022
lclavicle -2.51463e-014 -2.38542e-015
lhumerus 30.7349 -11.6083 56.2384
lradius 45.531
lwrist -18.9282
lhand -8.55246 32.9423
lfingers 7.12502
lthumb 17.3772 62.1856
rfemur -8.07665 -2.86001 14.1922
rtibia 21.4113
rfoot -12.0295 -14.5574
rtoes 11.5539
lfemur -24.5265 1.38883 -4.70687
ltibia 33.3717
lfoot -13.0859 4.29814
ltoes -10.0729
1370
root 2.8772 17.8277 18.8558 -183.574 136.582 -545.983
lowerback 6.9002 -0.426 1.87471
upperback 2.75586 -0.342357 3.35858
thorax -1.01627 -0.154401 2.43354
lowerneck -17.5399 -5.65627 -14.7876
upperneck 19.9079 -5.44547 7.57559
head 9.85914 -2.8035 4.3518
rclavicle 1.23246e-014 -2.94201e-014
rhumerus 38.9524 11.9813 -57.927
rradius 35.3411
rwrist -0.590546
rhand -20.881 33.0746
rfingers 7.12502
rthumb 5.48928 3.16571
lclavicle 1.23246e-014 -2.94201e-014
lhumerus 30.7827 -11.59 55.8387
lradius 45.6671
lwrist -18.8619
lhand -8.71206 32.7955
lfingers 7.12502
lthumb 17.2236 62.0522
rfemur -7.4937 -2.62574 14.1332
rtibia 20.7674
rfoot -12.1455 -15.0858
rtoes 13.8386
lfemur -24.4388 1.51756 -4.48055
ltibia 32.3275
lfoot -12.5985 4.96257
ltoes -7.52092
1371
root 2.94106 17.8312 18.8758 -183.601 136.195 -546.03
lowerback 6.85069 -0.366581 1.84855
upperback 2.73669 -0.26488 3.40896
thorax -1.01039 -0.115746 2.49417
lowerneck -17.5102 -5.69667 -14.6541
upperneck 19.8764 -5.50204 7.40648
head 9.84062 -2.83766 4.25972
rclavicle -3.10104e-014 -3.49861e-014
rhumerus 38.9458 11.7997 -57.986
rradius 35.3552
rwrist -0.456805
rhand -20.989 33.0389
rfingers 7.12502
rthumb 5.385 3.12734
lclavicle -3.10104e-014 -3.49861e-014
lhumerus 30.9282 -11.758 55.5746
lradius 45.6201
lwrist -18.5022
lhand -8.62083 32.8617
lfingers 7.12502
lthumb 17.3114 62.1107
rfemur -6.95572 -2.69919 14.0078
rtibia 20.2565
rfoot -12.0718 -15.4714
rtoes 14.6767
lfemur -24.1575 1.1513 -4.3091
ltibia 31.2798
lfoot -12.3095 6.33138
ltoes -7.07174
1372
root 3.00117 17.8238 18.9019 -183.779 135.855 -546.267
lowerback 6.83691 -0.234156 1.88667
upperback 2.67316 -0.0818329 3.50753
thorax -1.07355 -0.0240704 2.56102
lowerneck -17.3173 -5.69801 -14.653
upperneck 19.7309 -5.50559 7.30867
head 9.75159 -2.85017 4.22309
rclavicle 4.31363e-014 4.25399e-014
rhumerus 38.8057 11.6449 -57.8019
rradius 35.3627
rwrist -0.524763
rhand -21.0356 32.9973
rfingers 7.12502
rthumb 5.33997 3.0846
lclavicle 4.31363e-014 4.25399e-014
lhumerus 30.9698 -12.029 55.5432
lradius 45.6644
lwrist -18.2766
lhand -8.76481 32.9903
lfingers 7.12502
lthumb 17.1728 62.2514
rfemur -6.53256 -2.60946 14.0698
rtibia 20.0514
rfoot -12.4038 -15.871
rtoes 16.2223
lfemur -23.7493 0.498131 -3.92817
ltibia 30.1225
lfoot -12.0104 7.76726
ltoes -8.03515
1373
root 3.05412 17.8229 18.9376 -183.951 135.593 -546.322
lowerback 6.9047 -0.0543952 1.6553
upperback 2.70826 0.145705 3.56116
thorax -1.08268 0.0887365 2.72964
lowerneck -17.1963 -5.68575 -14.5237
upperneck 19.5524 -5.50818 7.18433
head 9.6588 -2.85361 4.15508
rclavicle -6.03311e-014 -7.95139e-016
rhumerus 38.762 11.3715 -57.6561
rradius 35.3405
rwrist -0.574905
rhand -21.1522 33.1091
rfingers 7.12502
rthumb 5.22744 3.19353
lclavicle -6.03311e-014 -7.95139e-016
lhumerus 31.0402 -12.0576 55.7875
lradius 45.7701
lwrist -18.5362
lhand -8.82246 32.9264
lfingers 7.12502
lthumb 17.1173 62.1924
rfemur -6.16165 -2.29855 14.0844
rtibia 20.1135
rfoot -12.0156 -16.5554
rtoes 13.3963
lfemur -23.2951 1.08946 -3.81446
ltibia 28.985
lfoot -11.4763 7.79832
ltoes -8.60985
1374
root 3.11978 17.8417 18.9589 -183.192 135.23 -545.347
lowerback 6.88642 0.0720711 0.80663
upperback 2.62354 0.253635 3.39161
thorax -1.16655 0.138019 3.02392
lowerneck -17.0823 -5.66984 -14.4601
upperneck 19.4495 -5.49496 7.08808
head 9.5954 -2.85289 4.1117
rclavicle -3.91606e-014 2.14687e-014
rhumerus 38.7532 11.3259 -57.434
rradius 35.4103
rwrist -0.677827
rhand -21.359 33.2495
rfingers 7.12502
rthumb 5.02772 3.32917
lclavicle -3.91606e-014 2.14687e-014
lhumerus 31.2166 -12.0334 55.9499
lradius 45.5637
lwrist -18.8108
lhand -8.6811 32.9138
lfingers 7.12502
lthumb 17.2534 62.1679
rfemur -6.04303 -2.44673 13.2092
rtibia 20.1591
rfoot -11.2067 -17.0605
rtoes 9.16764
lfemur -23.1278 1.6011 -4.60614
ltibia 28.0416
lfoot -10.9415 7.5743
ltoes -9.29428
1375
root 3.20332 17.8459 18.9626 -182.821 134.738 -544.906
lowerback 6.91348 0.0414919 0.627462
upperback 2.49486 0.199753 3.22328
thorax -1.31181 0.110859 2.95477
lowerneck -16.9826 -5.59474 -14.2925
upperneck 19.4216 -5.44175 7.05056
head 9.55382 -2.82079 4.07972
rclavicle -2.23633e-014 4.21423e-014
rhumerus 38.6733 11.3787 -57.4923
rradius 35.5233
rwrist -0.683963
rhand -21.3281 33.2525
rfingers 7.12502
rthumb 5.05754 3.33287
lclavicle -2.23633e-014 4.21423e-014
lhumerus 31.2696 -12.2071 55.6301
lradius 45.4485
lwrist -18.6127
lhand -8.6507 33.3605
lfingers 7.12502
lthumb 17.2826 62.612
rfemur -5.85009 -3.0478 12.6028
rtibia 20.2772
rfoot -10.9896 -17.092
rtoes 8.02546
lfemur -22.8834 1.11063 -4.97665
ltibia 27.2959
lfoot -10.2685 8.10932
ltoes -12.8722
